<svg version="1" xmlns="http://www.w3.org/2000/svg" width="524" height="524" viewBox="0 0 393.000000 393.000000"><path d="M76.5.9C65.8 3.6 61.6 12.7 68 19.2c1.6 1.6 3.8 2.8 4.7 2.6 2.6-.5 2.8-4.4.4-5.8-2.6-1.3-2.7-5.1-.2-7.4 2.9-2.6 8.2-3 16.4-1.2 9 2 17.2 6.7 21 12.2 4.7 6.7 4.7 19.2 0 23.9-.8.8-3 1.5-4.9 1.5-5 0-17.7 2.7-26.4 5.7-27.9 9.4-52.5 31.2-66 58.2C4.1 126.5.5 144 1.3 165c1 27.3 10.3 50.6 28.4 71.4 3.7 4.3 10.6 14.1 15.3 21.7C91.4 334 146.5 380.8 200.9 390.6c11 2 60.2 1.1 75.1-1.3 47.2-7.6 88.1-40.4 106-85.2 14.4-35.7 13.1-76.1-3.4-110.7-7.7-16-14.3-25.3-27.5-38.5-20.3-20.4-42-32.3-70.1-38.4-13.8-3-47.4-3-55.3.1-.8.3-2.7-2.7-5.2-7.8-17.7-36.4-53.6-60.5-95.6-64.3l-7.5-.6 1.4-5.8c2.7-11-2.2-23.2-11.9-29.7-8-5.3-23.7-9.2-30.4-7.5zm28 51.8c-1.4 2.1-2.8 5.4-3.1 7.4-.6 3.5-1 3.8-7.5 6.4-15.2 5.9-30.2 18.2-39.5 32.2-14.8 22.1-17.4 51-6.9 74.1l2.4 5.3-2.2.8c-9.5 3.5-37.7 12.4-38.1 12-1.2-1.2-3.8-16.2-4.3-25.4C2.2 111.3 41.5 61.3 95.6 50.6c3.8-.8 7.9-1.5 9.2-1.5l2.3-.1-2.6 3.7zm41.4-.3c31.6 8.8 58.9 32.1 72.5 61.8l3.4 7.5 6.9-1.5c6.5-1.5 38.4-2.4 39.6-1.2.9.9-30 123.2-31.5 124.5-3.4 3.2-124.7 91.5-125.6 91.5-1.1 0-21.9-21.7-23.4-24.5-.7-1.1 7.2-12.8 30.2-44.9l31.1-43.5 7.2-2.1c26.2-7.9 47.9-28.4 56.1-53 14.7-44.3-10.5-89.3-58.1-103.6-7.7-2.4-10.7-2.7-23.3-2.8-8-.1-16.9.3-19.7.7l-5.3.9 1.1-2.9c.5-1.6 2.4-4.6 4.1-6.7l3.2-3.9 11 .6c7.3.4 14.3 1.4 20.5 3.1zm-.7 13c53.6 10.4 82.6 64.8 58.8 110.4-5.1 9.9-12.2 18.5-21.1 25.6-31.6 25.1-78.8 24.6-109.6-1.3-12.5-10.5-21.9-24.9-25.8-39.6-7.8-29.3 4.4-61.8 30-80.1 6.6-4.6 23.3-13 24.2-12 .3.3.8 2 1.2 3.8.5 2.4 1.2 3.3 2.6 3.3 1.7 0 2-.6 1.8-4.7l-.1-4.7 4.6-.6c2.6-.4 5.2-.8 5.7-1 2.7-.9 21.2-.3 27.7.9zm142 57c16.9 4.4 32.7 12.1 46.6 22.6 8.6 6.5 16.9 14.6 15.9 15.6-2.9 2.9-105.3 77.1-105.5 76.5-.2-.6 22.5-92.9 27.9-113.4 1.2-4.5 2.1-4.6 15.1-1.3zm77.9 55.6c6 8.8 12.8 22.7 15.9 32.6l2.3 7.1-71.8 84.6-71.7 84.6-6.6.7c-3.6.4-11.8.4-18.2.1-31.8-1.6-63.7-16.5-95.8-44.8-3-2.6-4.2-4.3-3.6-4.9.6-.6 54.3-40.1 119.4-88l118.5-86.9 3.3 3.7c1.8 2 5.5 7.1 8.3 11.2zM56.3 188.2c11.3 15.9 29.3 27.8 50.3 33.4 5.1 1.3 10.7 1.8 21.6 1.9 9.5 0 14.4.4 14 1-.9 1.4-52.9 74.3-55.9 78.3l-2.5 3.3-5.7-7.3c-10-12.8-19.7-26.9-28-40.8-4.4-7.4-10.8-16.8-14.3-20.9-3.5-4.1-8-9.7-10.1-12.5-4-5.4-13.4-23.7-13.9-27.1-.3-1.8 2.1-2.8 19.2-8.7 10.7-3.7 19.8-6.7 20.2-6.7.3-.1 2.6 2.7 5.1 6.1zM387.1 239c3.5 31.7-5.7 65.7-24.9 92.3-5.4 7.5-24.9 27.4-29 29.6-1.9 1-2 .8-1.5-2.7.2-2 2.1-21.3 4.2-42.8 2.6-26.9 4.2-39.7 5.2-41.1.8-1 10.8-13.1 22.4-26.7 24-28.2 21.6-27.4 23.6-8.6zM331 323.6c-4.6 47.5-2.4 41.8-19.5 50-18.4 8.9-39.7 13.8-57.3 13.2l-8.5-.3 44.3-52.2c24.4-28.8 44.5-52.1 44.7-51.9.2.1-1.5 18.7-3.7 41.2z"/><path d="M166.2 106.3c-4.8 5.1-1.5 13.1 5.3 13.1s9.8-7.2 5.4-12.8c-2.7-3.4-7.7-3.6-10.7-.3zM122.1 132.6c-2.4 3-2.6 5.5-1 8.7 1.6 3 2.8 3.7 7 3.7 4.5 0 6.9-2.5 6.9-7.3 0-7.4-8.5-10.7-12.9-5.1zM185.5 152c-.3.5-.3 2.1.1 3.5 2.8 11.3-16.8 23.6-32.8 20.6-4.2-.8-5.6-.7-6.8.5-1.2 1.2-1.2 1.6.3 3.1 1.4 1.4 3.5 1.8 10.5 1.8 10.2-.1 14.7-1.2 22.2-5.7 8.8-5.3 13.6-14.4 11.6-22.2-.6-2.6-3.8-3.6-5.1-1.6z"/></svg>